<?xml version="1.0" encoding="utf-8"?>
<!-- Generator: Adobe Illustrator 25.0.1, SVG Export Plug-In . SVG Version: 6.00 Build 0)  -->
<svg version="1.1" id="Layer_1" xmlns="http://www.w3.org/2000/svg" xmlns:xlink="http://www.w3.org/1999/xlink" x="0px" y="0px"
	 viewBox="0 0 200 200" style="enable-background:new 0 0 200 200;" xml:space="preserve">
<style type="text/css">
	.st0{opacity:0.5;}
	.st1{fill:#2E51FF;}
</style>
<g>
	<path d="M3.9,63.5l7.2-1.1c0.3,1.4,0.9,2.5,1.9,3.2c0.9,0.7,2.2,1.1,3.9,1.1c1.9,0,3.2-0.3,4.2-1c0.6-0.5,0.9-1.1,0.9-1.9
		c0-0.5-0.2-1-0.5-1.4c-0.4-0.3-1.2-0.7-2.4-0.9c-5.8-1.3-9.4-2.4-11-3.5c-2.1-1.5-3.2-3.5-3.2-6.1c0-2.3,0.9-4.3,2.8-5.9
		c1.9-1.6,4.7-2.4,8.6-2.4c3.7,0,6.5,0.6,8.3,1.8c1.8,1.2,3,3,3.7,5.4l-6.8,1.2c-0.3-1.1-0.8-1.9-1.6-2.4s-2-0.8-3.5-0.8
		c-1.9,0-3.2,0.3-4.1,0.8c-0.5,0.4-0.8,0.9-0.8,1.5c0,0.5,0.2,0.9,0.7,1.3c0.6,0.5,2.9,1.1,6.7,2s6.5,1.9,8,3.2
		c1.5,1.3,2.2,3,2.2,5.3c0,2.5-1,4.6-3.1,6.4c-2.1,1.8-5.1,2.7-9.2,2.7c-3.7,0-6.6-0.7-8.8-2.2C6,68.1,4.6,66,3.9,63.5z"/>
	<path d="M40.5,71.2L32,44.1h7L44,61.9l4.7-17.7h6.9l4.5,17.7l5.2-17.7h7.1l-8.7,27.1h-6.9l-4.7-17.4l-4.6,17.4H40.5z"/>
	<path d="M75.5,44.1h6.6v3.7c2.4-2.9,5.2-4.3,8.4-4.3c1.7,0,3.2,0.4,4.5,1.1c1.3,0.7,2.3,1.8,3.1,3.2c1.2-1.4,2.5-2.5,3.8-3.2
		c1.4-0.7,2.8-1.1,4.4-1.1c2,0,3.7,0.4,5,1.2c1.4,0.8,2.4,2,3.1,3.6c0.5,1.2,0.7,3,0.7,5.6v17.3h-7.2V55.7c0-2.7-0.2-4.4-0.7-5.2
		c-0.7-1-1.7-1.5-3.1-1.5c-1,0-1.9,0.3-2.8,0.9s-1.5,1.5-1.9,2.7c-0.4,1.2-0.6,3-0.6,5.6v13h-7.2V56.4c0-2.6-0.1-4.3-0.4-5.1
		c-0.3-0.8-0.6-1.3-1.2-1.7c-0.5-0.4-1.3-0.6-2.2-0.6c-1.1,0-2.1,0.3-3,0.9c-0.9,0.6-1.5,1.5-1.9,2.6c-0.4,1.1-0.6,3-0.6,5.6v13.2
		h-7.2V44.1z"/>
	<path d="M122,44.1h6.6v3.7c2.4-2.9,5.2-4.3,8.4-4.3c1.7,0,3.2,0.4,4.5,1.1c1.3,0.7,2.3,1.8,3.1,3.2c1.2-1.4,2.5-2.5,3.8-3.2
		s2.8-1.1,4.4-1.1c2,0,3.7,0.4,5,1.2c1.4,0.8,2.4,2,3.1,3.6c0.5,1.2,0.7,3,0.7,5.6v17.3h-7.2V55.7c0-2.7-0.2-4.4-0.7-5.2
		c-0.7-1-1.7-1.5-3.1-1.5c-1,0-1.9,0.3-2.8,0.9c-0.9,0.6-1.5,1.5-1.9,2.7c-0.4,1.2-0.6,3-0.6,5.6v13h-7.2V56.4
		c0-2.6-0.1-4.3-0.4-5.1c-0.3-0.8-0.6-1.3-1.2-1.7c-0.5-0.4-1.3-0.6-2.2-0.6c-1.1,0-2.1,0.3-3,0.9c-0.9,0.6-1.5,1.5-1.9,2.6
		c-0.4,1.1-0.6,3-0.6,5.6v13.2H122V44.1z"/>
</g>
<g class="st0">
	<path class="st1" d="M79.4,84.3H99v61.7c0,8.1-0.7,14.3-2.1,18.6c-1.9,5.7-5.4,10.2-10.4,13.7c-5,3.4-11.6,5.2-19.8,5.2
		c-9.6,0-17-2.7-22.2-8.1s-7.8-13.3-7.8-23.7l18.6-2.1c0.2,5.6,1,9.5,2.5,11.8c2.1,3.5,5.4,5.3,9.7,5.3c4.4,0,7.5-1.3,9.3-3.8
		c1.8-2.5,2.7-7.7,2.7-15.6V84.3z"/>
	<path class="st1" d="M115,150.1l19.2-1.9c1.2,6.4,3.5,11.2,7,14.2c3.5,3,8.3,4.5,14.3,4.5c6.3,0,11.1-1.3,14.3-4
		c3.2-2.7,4.8-5.8,4.8-9.4c0-2.3-0.7-4.3-2-5.9c-1.4-1.6-3.7-3-7.1-4.2c-2.3-0.8-7.6-2.2-15.8-4.3c-10.6-2.6-18-5.8-22.2-9.6
		c-6-5.4-9-11.9-9-19.6c0-5,1.4-9.6,4.2-13.9c2.8-4.3,6.9-7.6,12.2-9.9c5.3-2.3,11.7-3.4,19.2-3.4c12.2,0,21.4,2.7,27.6,8
		c6.2,5.4,9.4,12.5,9.7,21.5l-19.7,0.9c-0.8-5-2.6-8.6-5.4-10.8s-6.9-3.3-12.5-3.3c-5.7,0-10.2,1.2-13.4,3.5
		c-2.1,1.5-3.1,3.5-3.1,6.1c0,2.3,1,4.3,2.9,5.9c2.5,2.1,8.5,4.3,18.1,6.5c9.6,2.3,16.7,4.6,21.2,7c4.6,2.4,8.2,5.7,10.8,9.9
		c2.6,4.2,3.9,9.4,3.9,15.5c0,5.6-1.6,10.8-4.7,15.7c-3.1,4.9-7.5,8.5-13.2,10.9c-5.7,2.4-12.7,3.6-21.2,3.6
		c-12.3,0-21.8-2.8-28.4-8.5C120.2,169.3,116.3,161,115,150.1z"/>
</g>
</svg>
